<svg width="133" height="44" viewBox="0 0 133 44" fill="none" xmlns="http://www.w3.org/2000/svg">
<path d="M0 4.46523C0 1.99915 1.99915 0 4.46523 0L127.148 0C130.094 0 132.232 2.803 131.454 5.64455L121.851 40.7141C121.32 42.6545 119.556 44 117.544 44H4.46523C1.99915 44 0 42.0009 0 39.5348V4.46523Z" fill="url(#paint0_linear_3_3430)"/>
<path d="M14.5418 28.0137V17.8319H18.7875C19.5498 17.8319 20.1878 17.9396 20.7016 18.1551C21.2186 18.3705 21.6064 18.6721 21.8649 19.0599C22.1268 19.4477 22.2577 19.8968 22.2577 20.4072C22.2577 20.795 22.1765 21.1413 22.0141 21.4463C21.8517 21.7479 21.6279 21.9981 21.3429 22.197C21.0579 22.3958 20.7281 22.535 20.3536 22.6146V22.714C20.7645 22.7339 21.144 22.8449 21.4921 23.0471C21.8434 23.2493 22.1251 23.531 22.3372 23.8923C22.5493 24.2502 22.6554 24.6745 22.6554 25.165C22.6554 25.7119 22.5162 26.2008 22.2378 26.6316C21.9594 27.0592 21.5567 27.3973 21.0297 27.6458C20.5027 27.8911 19.863 28.0137 19.1107 28.0137H14.5418ZM17.0027 26.0301H18.524C19.0576 26.0301 19.4504 25.929 19.7023 25.7268C19.9575 25.5246 20.0851 25.2429 20.0851 24.8816C20.0851 24.6198 20.0238 24.3944 19.9011 24.2055C19.7785 24.0133 19.6045 23.8658 19.3791 23.763C19.1537 23.657 18.8836 23.6039 18.5688 23.6039H17.0027V26.0301ZM17.0027 22.018H18.3649C18.6334 22.018 18.872 21.9732 19.0808 21.8838C19.2896 21.7943 19.452 21.665 19.568 21.496C19.6874 21.3269 19.747 21.1231 19.747 20.8845C19.747 20.5431 19.626 20.2746 19.3841 20.0791C19.1421 19.8835 18.8157 19.7858 18.4047 19.7858H17.0027V22.018ZM24.2586 28.0137V17.8319H26.7196V26.0152H30.9554V28.0137H24.2586ZM41.8629 22.9228C41.8629 24.0431 41.6475 24.9927 41.2166 25.7715C40.7858 26.5504 40.2024 27.142 39.4666 27.5464C38.7342 27.9508 37.9122 28.1529 37.0007 28.1529C36.086 28.1529 35.2623 27.9491 34.5299 27.5414C33.7974 27.1338 33.2157 26.5421 32.7848 25.7666C32.3573 24.9877 32.1435 24.0398 32.1435 22.9228C32.1435 21.8026 32.3573 20.853 32.7848 20.0741C33.2157 19.2952 33.7974 18.7036 34.5299 18.2992C35.2623 17.8949 36.086 17.6927 37.0007 17.6927C37.9122 17.6927 38.7342 17.8949 39.4666 18.2992C40.2024 18.7036 40.7858 19.2952 41.2166 20.0741C41.6475 20.853 41.8629 21.8026 41.8629 22.9228ZM39.3473 22.9228C39.3473 22.2599 39.2529 21.6998 39.0639 21.2424C38.8783 20.785 38.6099 20.4387 38.2585 20.2034C37.9105 19.968 37.4913 19.8504 37.0007 19.8504C36.5135 19.8504 36.0942 19.968 35.7429 20.2034C35.3916 20.4387 35.1215 20.785 34.9325 21.2424C34.7469 21.6998 34.6541 22.2599 34.6541 22.9228C34.6541 23.5857 34.7469 24.1458 34.9325 24.6032C35.1215 25.0606 35.3916 25.407 35.7429 25.6423C36.0942 25.8776 36.5135 25.9953 37.0007 25.9953C37.4913 25.9953 37.9105 25.8776 38.2585 25.6423C38.6099 25.407 38.8783 25.0606 39.0639 24.6032C39.2529 24.1458 39.3473 23.5857 39.3473 22.9228ZM50.4016 21.1579C50.3452 20.9491 50.2624 20.7652 50.153 20.6061C50.0436 20.4437 49.9094 20.3061 49.7503 20.1934C49.5912 20.0807 49.4089 19.9962 49.2034 19.9399C48.9979 19.8802 48.7725 19.8504 48.5273 19.8504C48.0334 19.8504 47.6059 19.9697 47.2446 20.2083C46.8866 20.447 46.6099 20.795 46.4143 21.2524C46.2188 21.7064 46.121 22.2583 46.121 22.9079C46.121 23.5608 46.2155 24.1177 46.4044 24.5784C46.5933 25.0391 46.8668 25.3904 47.2247 25.6323C47.5827 25.8743 48.0169 25.9953 48.5273 25.9953C48.978 25.9953 49.3592 25.9224 49.6707 25.7765C49.9856 25.6274 50.2242 25.4169 50.3866 25.1451C50.549 24.8733 50.6303 24.5535 50.6303 24.1856L51.0876 24.2403H48.6118V22.4456H53.0017V23.7929C53.0017 24.7043 52.8078 25.4849 52.42 26.1345C52.0356 26.7841 51.5053 27.2829 50.8291 27.6309C50.1563 27.9789 49.3824 28.1529 48.5074 28.1529C47.5363 28.1529 46.6828 27.9425 45.947 27.5215C45.2112 27.1006 44.6378 26.5007 44.2268 25.7218C43.8159 24.9396 43.6104 24.0116 43.6104 22.9377C43.6104 22.1025 43.7347 21.3617 43.9832 20.7154C44.2318 20.0658 44.5782 19.5156 45.0223 19.0649C45.4697 18.6141 45.9868 18.2727 46.5734 18.0407C47.1634 17.8087 47.7981 17.6927 48.4776 17.6927C49.0675 17.6927 49.616 17.7772 50.1231 17.9463C50.6336 18.1153 51.0843 18.3539 51.4754 18.6622C51.8698 18.9704 52.1897 19.3366 52.4349 19.7609C52.6802 20.1851 52.8327 20.6508 52.8923 21.1579H50.4016ZM64.4822 22.9228C64.4822 24.0431 64.2668 24.9927 63.8359 25.7715C63.4051 26.5504 62.8217 27.142 62.0859 27.5464C61.3535 27.9508 60.5315 28.1529 59.62 28.1529C58.7053 28.1529 57.8816 27.9491 57.1491 27.5414C56.4167 27.1338 55.835 26.5421 55.4041 25.7666C54.9766 24.9877 54.7628 24.0398 54.7628 22.9228C54.7628 21.8026 54.9766 20.853 55.4041 20.0741C55.835 19.2952 56.4167 18.7036 57.1491 18.2992C57.8816 17.8949 58.7053 17.6927 59.62 17.6927C60.5315 17.6927 61.3535 17.8949 62.0859 18.2992C62.8217 18.7036 63.4051 19.2952 63.8359 20.0741C64.2668 20.853 64.4822 21.8026 64.4822 22.9228ZM61.9666 22.9228C61.9666 22.2599 61.8722 21.6998 61.6832 21.2424C61.4976 20.785 61.2292 20.4387 60.8778 20.2034C60.5298 19.968 60.1106 19.8504 59.62 19.8504C59.1328 19.8504 58.7135 19.968 58.3622 20.2034C58.0109 20.4387 57.7408 20.785 57.5518 21.2424C57.3662 21.6998 57.2734 22.2599 57.2734 22.9228C57.2734 23.5857 57.3662 24.1458 57.5518 24.6032C57.7408 25.0606 58.0109 25.407 58.3622 25.6423C58.7135 25.8776 59.1328 25.9953 59.62 25.9953C60.1106 25.9953 60.5298 25.8776 60.8778 25.6423C61.2292 25.407 61.4976 25.0606 61.6832 24.6032C61.8722 24.1458 61.9666 23.5857 61.9666 22.9228ZM66.339 28.0137V17.8319H68.8V26.0152H73.0358V28.0137H66.339ZM83.9433 22.9228C83.9433 24.0431 83.7279 24.9927 83.297 25.7715C82.8662 26.5504 82.2828 27.142 81.547 27.5464C80.8145 27.9508 79.9926 28.1529 79.0811 28.1529C78.1663 28.1529 77.3427 27.9491 76.6102 27.5414C75.8778 27.1338 75.2961 26.5421 74.8652 25.7666C74.4377 24.9877 74.2239 24.0398 74.2239 22.9228C74.2239 21.8026 74.4377 20.853 74.8652 20.0741C75.2961 19.2952 75.8778 18.7036 76.6102 18.2992C77.3427 17.8949 78.1663 17.6927 79.0811 17.6927C79.9926 17.6927 80.8145 17.8949 81.547 18.2992C82.2828 18.7036 82.8662 19.2952 83.297 20.0741C83.7279 20.853 83.9433 21.8026 83.9433 22.9228ZM81.4277 22.9228C81.4277 22.2599 81.3332 21.6998 81.1443 21.2424C80.9587 20.785 80.6903 20.4387 80.3389 20.2034C79.9909 19.968 79.5716 19.8504 79.0811 19.8504C78.5939 19.8504 78.1746 19.968 77.8233 20.2034C77.472 20.4387 77.2019 20.785 77.0129 21.2424C76.8273 21.6998 76.7345 22.2599 76.7345 22.9228C76.7345 23.5857 76.8273 24.1458 77.0129 24.6032C77.2019 25.0606 77.472 25.407 77.8233 25.6423C78.1746 25.8776 78.5939 25.9953 79.0811 25.9953C79.5716 25.9953 79.9909 25.8776 80.3389 25.6423C80.6903 25.407 80.9587 25.0606 81.1443 24.6032C81.3332 24.1458 81.4277 23.5857 81.4277 22.9228ZM92.4819 21.1579C92.4256 20.9491 92.3427 20.7652 92.2334 20.6061C92.124 20.4437 91.9898 20.3061 91.8307 20.1934C91.6716 20.0807 91.4893 19.9962 91.2838 19.9399C91.0783 19.8802 90.8529 19.8504 90.6077 19.8504C90.1138 19.8504 89.6863 19.9697 89.325 20.2083C88.967 20.447 88.6903 20.795 88.4947 21.2524C88.2992 21.7064 88.2014 22.2583 88.2014 22.9079C88.2014 23.5608 88.2959 24.1177 88.4848 24.5784C88.6737 25.0391 88.9471 25.3904 89.3051 25.6323C89.6631 25.8743 90.0972 25.9953 90.6077 25.9953C91.0584 25.9953 91.4396 25.9224 91.7511 25.7765C92.066 25.6274 92.3046 25.4169 92.467 25.1451C92.6294 24.8733 92.7106 24.5535 92.7106 24.1856L93.168 24.2403H90.6922V22.4456H95.0821V23.7929C95.0821 24.7043 94.8882 25.4849 94.5004 26.1345C94.1159 26.7841 93.5856 27.2829 92.9095 27.6309C92.2367 27.9789 91.4628 28.1529 90.5878 28.1529C89.6167 28.1529 88.7632 27.9425 88.0274 27.5215C87.2916 27.1006 86.7182 26.5007 86.3072 25.7218C85.8962 24.9396 85.6908 24.0116 85.6908 22.9377C85.6908 22.1025 85.815 21.3617 86.0636 20.7154C86.3122 20.0658 86.6586 19.5156 87.1027 19.0649C87.5501 18.6141 88.0672 18.2727 88.6538 18.0407C89.2438 17.8087 89.8785 17.6927 90.5579 17.6927C91.1479 17.6927 91.6964 17.7772 92.2035 17.9463C92.714 18.1153 93.1647 18.3539 93.5558 18.6622C93.9502 18.9704 94.2701 19.3366 94.5153 19.7609C94.7606 20.1851 94.9131 20.6508 94.9727 21.1579H92.4819ZM106.563 22.9228C106.563 24.0431 106.347 24.9927 105.916 25.7715C105.485 26.5504 104.902 27.142 104.166 27.5464C103.434 27.9508 102.612 28.1529 101.7 28.1529C100.786 28.1529 99.962 27.9491 99.2295 27.5414C98.4971 27.1338 97.9154 26.5421 97.4845 25.7666C97.057 24.9877 96.8432 24.0398 96.8432 22.9228C96.8432 21.8026 97.057 20.853 97.4845 20.0741C97.9154 19.2952 98.4971 18.7036 99.2295 18.2992C99.962 17.8949 100.786 17.6927 101.7 17.6927C102.612 17.6927 103.434 17.8949 104.166 18.2992C104.902 18.7036 105.485 19.2952 105.916 20.0741C106.347 20.853 106.563 21.8026 106.563 22.9228ZM104.047 22.9228C104.047 22.2599 103.953 21.6998 103.764 21.2424C103.578 20.785 103.31 20.4387 102.958 20.2034C102.61 19.968 102.191 19.8504 101.7 19.8504C101.213 19.8504 100.794 19.968 100.443 20.2034C100.091 20.4387 99.8212 20.785 99.6322 21.2424C99.4466 21.6998 99.3538 22.2599 99.3538 22.9228C99.3538 23.5857 99.4466 24.1458 99.6322 24.6032C99.8212 25.0606 100.091 25.407 100.443 25.6423C100.794 25.8776 101.213 25.9953 101.7 25.9953C102.191 25.9953 102.61 25.8776 102.958 25.6423C103.31 25.407 103.578 25.0606 103.764 24.6032C103.953 24.1458 104.047 23.5857 104.047 22.9228Z" fill="white"/>
<defs>
<linearGradient id="paint0_linear_3_3430" x1="-10.3269" y1="-5.21739" x2="25.0723" y2="87.9632" gradientUnits="userSpaceOnUse">
<stop stop-color="#4D0AC7"/>
<stop offset="1" stop-color="#912EF2"/>
</linearGradient>
</defs>
</svg>
